<svg width="48" height="48" viewBox="0 0 48 48" fill="none" xmlns="http://www.w3.org/2000/svg">
<g clip-path="url(#clip0_1_158)" filter="url(#filter0_d_1_158)">
<path d="M21.594 15.3871C21.7166 14.9211 22.0204 14.5233 22.4382 14.2827L28.1729 10.9698C28.5901 10.7297 29.086 10.6654 29.5509 10.7914C30.0169 10.9155 30.4128 11.2223 30.6498 11.6423L32.4283 14.7298C33.791 14.5291 35.176 14.5291 36.5388 14.7298L38.32 11.6383C38.5566 11.2202 38.9516 10.9149 39.4158 10.7914C39.8791 10.6657 40.3732 10.7288 40.7899 10.967L40.8445 10.9984C40.3873 9.09494 39.4131 7.35521 38.0299 5.9702C37.8744 5.81465 37.7081 5.67648 37.5459 5.53252L33.1212 10.0185C32.4127 10.7264 31.2665 10.7313 30.5522 10.0295L28.0152 7.52357C27.3869 7.7996 26.7397 8.03018 26.0787 8.21348C25.4151 8.39679 24.7392 8.5319 24.0563 8.61792L23.1596 12.0669C22.9555 12.8666 22.236 13.4269 21.4107 13.4287C21.2576 13.4287 21.1051 13.4092 20.9568 13.3714L19.7795 13.0307C19.6319 15.9785 20.7122 18.8556 22.7634 20.9781C23.0092 20.5895 23.2749 20.2138 23.5588 19.8523L21.7791 16.7627C21.536 16.3473 21.4696 15.8519 21.594 15.3871Z" fill="white"/>
<path d="M30.4355 0.0229555C23.3753 0.0186854 17.4943 5.43429 16.9175 12.4707C16.3405 19.5074 21.261 25.8084 28.2279 26.954C28.2364 26.9527 28.2434 26.9476 28.252 26.9466C28.37 26.9387 28.4884 26.9607 28.5957 27.0104C31.7259 27.4703 34.9172 26.7887 37.5865 25.0901C37.6012 25.0773 37.6213 25.0709 37.6372 25.0593C42.7618 21.8519 45.142 15.6375 43.4706 9.82722C41.7995 4.01725 36.4812 0.0171604 30.4355 0.0229555ZM39.039 22.1234C34.4819 26.6785 27.1576 26.8728 22.3658 22.565C22.3612 22.5598 22.3542 22.5565 22.3499 22.551C22.1919 22.4085 22.0284 22.2752 21.8765 22.1234C19.2108 19.4528 17.9417 15.6924 18.4447 11.9528C18.4483 11.936 18.4441 11.9198 18.4489 11.9034L18.4529 11.8951C19.029 7.60254 21.8549 3.94527 25.8632 2.30467C29.8715 0.664068 34.4508 1.29054 37.8711 3.94741C37.9074 3.96906 37.9416 3.99438 37.9733 4.02244C40.7082 6.15836 42.3925 9.36759 42.5965 12.8321C42.8005 16.2963 41.5046 19.6812 39.039 22.1234Z" fill="white"/>
<path d="M29.293 24.1767C32.0328 24.4768 34.7824 23.7082 36.9689 22.0307C34.234 20.7241 30.954 21.6412 29.293 24.1767Z" fill="white"/>
<path d="M21.6026 11.9468C21.6895 11.8952 21.7521 11.8108 21.7762 11.7125L22.7982 7.78169C22.8742 7.49011 23.1249 7.27722 23.425 7.25007C24.1933 7.18114 24.954 7.04298 25.6979 6.83741C26.4399 6.63123 27.1625 6.35977 27.8567 6.0258C28.1287 5.89556 28.453 5.94985 28.6677 6.16122L31.5588 9.01695C31.6326 9.09015 31.7329 9.13071 31.8369 9.12919C31.9409 9.12766 32.0401 9.08435 32.1117 9.00871L36.4147 4.64719C33.4233 2.63876 29.6217 2.27215 26.3015 3.67119C22.9812 5.07023 20.5888 8.04704 19.937 11.5905L21.3321 11.9944C21.4251 12.0133 21.5218 11.9965 21.6026 11.9468Z" fill="white"/>
<path d="M33.2911 31.4335C35.6558 31.4307 37.5718 29.5147 37.5745 27.1501C37.5745 27.0268 37.5565 26.9036 37.5459 26.7804C35.3627 27.9626 32.9187 28.5805 30.4357 28.5778C30.0328 28.5778 29.6369 28.5488 29.2422 28.5174C29.8199 30.2623 31.4531 31.4384 33.2911 31.4335Z" fill="white"/>
<path d="M41.1263 12.8075L40.0813 12.207C39.9923 12.1561 39.8867 12.1426 39.7879 12.1698C39.6909 12.1954 39.6086 12.2595 39.5595 12.347L37.5294 15.8704C37.3784 16.1314 37.0801 16.2699 36.7833 16.2165C35.2629 15.9384 33.7044 15.9384 32.1836 16.2165C31.8872 16.2687 31.5895 16.1305 31.4376 15.8704L29.4102 12.351C29.3608 12.2619 29.2773 12.1963 29.1787 12.1698C29.0787 12.1426 28.972 12.1567 28.8826 12.2088L23.1541 15.5181C23.065 15.5696 23.0003 15.6544 22.9741 15.7539C22.9479 15.8533 22.9625 15.9591 23.0147 16.0476L25.0435 19.5694C25.1954 19.8323 25.164 20.1623 24.9655 20.3917C24.551 20.8825 24.1764 21.4055 23.8455 21.9558C25.0106 22.8717 26.3547 23.5335 27.7913 23.8986C28.7618 22.1305 30.4045 20.8285 32.3471 20.2868C34.29 19.7451 36.3692 20.0095 38.1147 21.02C40.2454 18.8383 41.3416 15.8496 41.1263 12.8075Z" fill="white"/>
<path d="M11.7809 28.181L6.22803 33.7335L10.2666 37.7718L15.8194 32.2192C16.0976 31.9398 16.0976 31.4884 15.8194 31.2094L12.7901 28.1807C12.5077 27.9114 12.0633 27.9114 11.7809 28.181Z" fill="white"/>
<path d="M19.8633 27.1807C20.1424 27.454 20.5895 27.451 20.8646 27.1737L22.0368 25.997C20.4486 24.9188 19.0804 23.5482 18.0053 21.9579L16.8273 23.1358C16.5504 23.4134 16.5504 23.8623 16.8273 24.1399L17.3776 24.6916L19.8572 27.171L19.8633 27.1807Z" fill="white"/>
<path d="M40.6906 29.7719C40.7904 29.4846 41.0609 29.2919 41.365 29.2919H43.9993V25.0087H41.365C41.0655 25.009 40.7977 24.8218 40.6952 24.5406C40.6906 24.5281 40.6845 24.514 40.6803 24.5015C40.1139 25.0389 39.5069 25.5315 38.8643 25.975C39.2873 27.9706 38.612 30.04 37.0934 31.4019C35.5748 32.764 33.4444 33.2108 31.5064 32.5743C29.5685 31.9375 28.1185 30.3136 27.7037 28.3165C26.1595 28.0344 24.6698 27.5098 23.2897 26.7622L22.583 27.4713V29.2919H25.2173C25.5211 29.2919 25.7919 29.4846 25.8914 29.7719C26.2083 30.6818 26.6938 31.5239 27.3224 32.254C27.5195 32.484 27.5496 32.8128 27.3987 33.0751L26.085 35.3523L29.7932 37.497L31.102 35.2171C31.2524 34.9545 31.5522 34.8161 31.8496 34.8716C32.8027 35.0451 33.7796 35.0451 34.7327 34.8716C35.0301 34.8167 35.3293 34.9551 35.4803 35.2171L36.7936 37.4943L40.5012 35.3553L39.1836 33.0748C39.0323 32.8128 39.0628 32.4837 39.2599 32.254C39.8882 31.5239 40.3737 30.6818 40.6906 29.7719Z" fill="white"/>
<path d="M18.3405 27.6785L16.3681 25.7012L16.3239 25.6569L14.3041 27.6757L15.3143 28.6859L16.3239 29.6952L18.3405 27.6785Z" fill="white"/>
<path d="M7.33112 13.3529C7.64832 14.2627 8.13388 15.1048 8.76249 15.835C8.95952 16.0646 8.99002 16.3937 8.83874 16.6557L7.5251 18.9332L11.2327 21.0779L12.5418 18.7981C12.6918 18.5355 12.9916 18.3967 13.289 18.4525C14.2421 18.626 15.2191 18.626 16.1722 18.4525C16.2048 18.4491 16.2375 18.4479 16.2698 18.4494C16.0328 17.765 15.8461 17.0644 15.7113 16.3532C13.5855 16.725 11.4312 15.8661 10.1444 14.1337C8.85765 12.401 8.65757 10.0909 9.62778 8.16297C10.598 6.23506 12.5723 5.01902 14.7308 5.02024C15.754 5.0178 16.7587 5.29535 17.6362 5.82239C18.5231 4.35777 19.6529 3.05481 20.9772 1.96931L18.2285 0.384521L16.9197 2.66441C16.7691 2.9264 16.4696 3.06487 16.1722 3.00967C15.2191 2.83612 14.2421 2.83612 13.289 3.00967C12.9916 3.06609 12.6915 2.92732 12.5418 2.66441L11.2281 0.386961L7.52052 2.52594L8.83843 4.80643C8.98971 5.06843 8.95921 5.39752 8.76249 5.62749C8.13357 6.35767 7.64832 7.19978 7.33112 8.1096C7.23138 8.39691 6.96084 8.58936 6.65676 8.58936H4.02246V12.8728H6.65676C6.96084 12.8728 7.23138 13.0656 7.33112 13.3529Z" fill="white"/>
<path d="M7.23759 39.7909C7.51667 40.0694 7.96868 40.0694 8.24775 39.7909L9.257 38.7813L5.21879 34.7431L4.20923 35.7524C4.07534 35.8863 4 36.0677 4 36.2568C4 36.4463 4.07534 36.6277 4.20923 36.7616L7.23759 39.7909Z" fill="white"/>
<path d="M14.7307 6.44787C13.0987 6.43567 11.6017 7.3522 10.8703 8.81102C10.139 10.2698 10.3 12.0175 11.2858 13.3183C12.2715 14.6189 13.9106 15.2462 15.5128 14.9361C15.4731 14.4908 15.4444 14.0421 15.4444 13.5864C15.4469 11.3331 15.9614 9.10932 16.949 7.0838C16.2835 6.6687 15.5149 6.44848 14.7307 6.44787Z" fill="white"/>
</g>
<defs>
<filter id="filter0_d_1_158" x="0" y="0" width="48" height="48" filterUnits="userSpaceOnUse" color-interpolation-filters="sRGB">
<feFlood flood-opacity="0" result="BackgroundImageFix"/>
<feColorMatrix in="SourceAlpha" type="matrix" values="0 0 0 0 0 0 0 0 0 0 0 0 0 0 0 0 0 0 127 0" result="hardAlpha"/>
<feOffset dy="4"/>
<feGaussianBlur stdDeviation="2"/>
<feComposite in2="hardAlpha" operator="out"/>
<feColorMatrix type="matrix" values="0 0 0 0 0 0 0 0 0 0 0 0 0 0 0 0 0 0 0.25 0"/>
<feBlend mode="normal" in2="BackgroundImageFix" result="effect1_dropShadow_1_158"/>
<feBlend mode="normal" in="SourceGraphic" in2="effect1_dropShadow_1_158" result="shape"/>
</filter>
<clipPath id="clip0_1_158">
<rect width="40" height="40" fill="white" transform="translate(4)"/>
</clipPath>
</defs>
</svg>
